<?xml version="1.0" encoding="UTF-8" standalone="no"?>
<!-- Created with Inkscape (http://www.inkscape.org/) -->

<svg
   xmlns:dc="http://purl.org/dc/elements/1.1/"
   xmlns:cc="http://creativecommons.org/ns#"
   xmlns:rdf="http://www.w3.org/1999/02/22-rdf-syntax-ns#"
   xmlns:svg="http://www.w3.org/2000/svg"
   xmlns="http://www.w3.org/2000/svg"
   xmlns:sodipodi="http://sodipodi.sourceforge.net/DTD/sodipodi-0.dtd"
   xmlns:inkscape="http://www.inkscape.org/namespaces/inkscape"
   version="1.1"
   width="744.09448"
   height="1052.3622"
   id="svg7118"
   inkscape:version="0.48.3.1 r9886"
   sodipodi:docname="quelpa-logo.svg">
  <sodipodi:namedview
     pagecolor="#ffffff"
     bordercolor="#666666"
     borderopacity="1"
     objecttolerance="10"
     gridtolerance="10"
     guidetolerance="10"
     inkscape:pageopacity="0"
     inkscape:pageshadow="2"
     inkscape:window-width="1680"
     inkscape:window-height="990"
     id="namedview7314"
     showgrid="false"
     inkscape:zoom="1"
     inkscape:cx="458.39439"
     inkscape:cy="614.43595"
     inkscape:window-x="0"
     inkscape:window-y="27"
     inkscape:window-maximized="1"
     inkscape:current-layer="svg7118" />
  <defs
     id="defs7120" />
  <metadata
     id="metadata7123">
    <rdf:RDF>
      <cc:Work
         rdf:about="">
        <dc:format>image/svg+xml</dc:format>
        <dc:type
           rdf:resource="http://purl.org/dc/dcmitype/StillImage" />
        <dc:title />
      </cc:Work>
    </rdf:RDF>
  </metadata>
  <g
     id="layer1"
     transform="matrix(0.57043071,0,0,0.57043071,81.813799,165.33798)">
    <g
       id="g7154">
      <g
         transform="translate(-139.44633,10.333425)"
         id="g7031">
        <path
           d="m 447.14285,449.50504 a 45.71429,57.142861 0 1 1 -91.42858,0 45.71429,57.142861 0 1 1 91.42858,0 z"
           transform="matrix(1.2983107,0,0,1.106066,-124.80118,-53.233048)"
           id="path7028"
           style="fill:#000000;fill-opacity:0;stroke:none"
           inkscape:connector-curvature="0" />
        <path
           d="m 395.91446,391.82765 c -12.15745,-2e-5 -14.42495,16.59374 -26.58239,16.59374 -9.29316,0 -12.80246,-9.68805 -19.37179,-14.24999 -7.0215,8.65797 -12.23891,19.31927 -14.95932,31.15625 2.15718,-1.63443 4.64349,-2.75 7.77562,-2.75 12.15744,0 14.39802,16.59374 26.55549,16.59374 12.15744,0 14.42494,-16.59374 26.58239,-16.59374 12.15746,0 14.42494,16.59374 26.5824,16.59374 12.15744,0 14.42495,-16.59374 26.58238,-16.59374 2.83712,0 5.14577,0.92763 7.15681,2.3125 -2.72297,-11.55749 -7.82194,-21.99094 -14.66337,-30.5 -6.36735,4.64756 -9.93351,14.03124 -19.07582,14.03124 -12.15747,0 -14.42494,-16.59374 -26.5824,-16.59374 z"
           id="path4127-1-8"
           style="fill:#2c5aa0;fill-opacity:1;fill-rule:evenodd;stroke:none"
           inkscape:connector-curvature="0" />
        <path
           d="m 343.08406,444.27855 c -4.08609,-10e-6 -7.05677,1.88977 -9.65898,4.37499 0.74177,9.57389 3.08272,18.60253 6.6994,26.75 0.92164,-0.22959 1.901,-0.37499 2.95958,-0.37499 12.15744,0 14.39805,16.59374 26.55549,16.59374 12.15744,0 14.42497,-16.59374 26.5824,-16.59374 12.15748,0 14.42495,16.59374 26.58239,16.59374 12.15745,0 14.42495,-16.59374 26.5824,-16.59374 0.87263,0 1.69727,0.0914 2.47528,0.24999 3.64382,-8.24727 5.97468,-17.39596 6.6725,-27.09375 -2.48478,-2.25245 -5.31813,-3.90624 -9.14778,-3.90624 -12.15745,-3e-5 -14.42492,16.59374 -26.5824,16.59374 -12.15745,0 -14.42491,-16.59374 -26.58239,-16.59374 -12.15743,-3e-5 -14.42496,16.59374 -26.5824,16.59374 -12.15744,0 -14.39805,-16.59374 -26.55549,-16.59374 z"
           id="path4127-1-0-5"
           style="fill:#2c5aa0;fill-opacity:1;fill-rule:evenodd;stroke:none"
           inkscape:connector-curvature="0" />
        <path
           d="m 351.13744,444.26088 c -3e-5,9.48331 0.71121,18.05207 2.13373,25.70638 1.42245,7.65436 3.861,14.19102 7.31564,19.60998 3.45457,5.35128 8.09458,9.48326 13.92005,12.39594 5.82536,2.91273 13.14099,4.36904 21.94693,4.36904 8.80578,0 16.12142,-1.45631 21.94693,-4.36904 5.82531,-2.91268 10.46533,-7.04466 13.92004,-12.39594 3.52223,-5.41896 5.99465,-11.95562 7.41725,-19.60998 1.42237,-7.65431 2.13361,-16.22307 2.13373,-25.70638 -1.2e-4,-9.41542 -0.71136,-17.91645 -2.13373,-25.50313 -1.4226,-7.65426 -3.89502,-14.12318 -7.41725,-19.40678 -3.45471,-5.35118 -8.09473,-9.44929 -13.92004,-12.29434 -5.82551,-2.91263 -13.14115,-4.36894 -21.94693,-4.3691 -8.80594,1.6e-4 -16.12157,1.45647 -21.94693,4.3691 -5.82547,2.84505 -10.46548,6.94316 -13.92005,12.29434 -3.45464,5.2836 -5.89319,11.75252 -7.31564,19.40678 -1.42252,7.58668 -2.13376,16.08771 -2.13373,25.50313 m -21.23569,0 c -10e-6,-12.05717 1.45635,-22.45488 4.36907,-31.19307 2.98043,-8.80577 7.28175,-16.05369 12.90398,-21.74373 5.62217,-5.68985 12.56526,-9.88956 20.82927,-12.59919 8.26391,-2.77706 17.74714,-4.16569 28.44972,-4.16585 10.36374,1.6e-4 19.64376,1.38879 27.84009,4.16585 8.26385,2.70963 15.27467,6.90934 21.03247,12.59919 5.75755,5.69004 10.16048,12.93796 13.2088,21.74373 3.04805,8.73819 4.57214,19.1359 4.57228,31.19307 -1.4e-4,8.67046 -0.81299,16.4941 -2.43855,23.47103 -1.5581,6.90924 -3.89504,13.03945 -7.01083,18.39068 -3.04831,5.28355 -6.80773,9.82198 -11.27828,13.61524 -4.47079,3.79331 -9.58496,6.87538 -15.34253,9.24619 l 5.08031,6.29954 c 2.91259,3.65785 5.62209,6.80765 8.12849,9.4494 2.50617,2.64174 4.84311,4.77544 7.01083,6.40119 2.2352,1.69343 4.36893,2.91268 6.40118,3.6578 2.03199,0.81285 4.06412,1.21924 6.09637,1.2193 0.47403,-6e-5 1.11753,-0.0364 1.93052,-0.10145 0.81271,-5e-5 1.62556,-0.0364 2.43855,-0.10144 0.8127,-5e-5 1.59169,-0.0364 2.33692,-0.10144 0.74501,0 1.28687,-0.0364 1.6257,-0.10145 l 0,6.70605 c -0.74522,0.33866 -1.86293,0.7112 -3.35298,1.11765 -1.49037,0.40629 -3.1838,0.81279 -5.08031,1.21924 -1.82905,0.4063 -3.75956,0.74512 -5.79155,1.0161 -2.03225,0.27104 -3.96277,0.4063 -5.79155,0.4063 -3.86116,0 -7.34964,-0.50826 -10.46544,-1.5241 -3.04829,-0.94832 -6.06261,-2.50628 -9.04294,-4.67384 -2.91282,-2.09989 -5.92713,-4.87715 -9.04296,-8.33175 -3.04827,-3.38686 -6.50288,-7.48497 -10.36382,-12.29434 l -4.16585,-5.28349 c -1.21936,0.13526 -2.54024,0.23722 -3.96264,0.30485 -1.35483,0.0676 -2.87892,0.10144 -4.57228,0.10144 -10.36389,0 -19.64392,-1.38863 -27.84009,-4.16584 -8.19627,-2.77722 -15.17322,-7.04466 -20.93087,-12.80239 -5.7577,-5.75763 -10.16063,-13.0394 -13.2088,-21.84533 -3.04819,-8.80583 -4.57229,-19.23735 -4.57228,-31.29467"
           id="path6492"
           style="font-size:40px;font-style:normal;font-variant:normal;font-weight:normal;font-stretch:normal;text-align:start;line-height:125%;letter-spacing:0px;word-spacing:0px;writing-mode:lr-tb;text-anchor:start;fill:#2c5aa0;fill-opacity:1;stroke:none;font-family:Liberation Serif;-inkscape-font-specification:Liberation Serif"
           inkscape:connector-curvature="0" />
      </g>
      <text
         x="329.36731"
         y="497.21747"
         id="text7043"
         xml:space="preserve"
         style="font-size:144.20411682px;font-style:normal;font-variant:normal;font-weight:normal;font-stretch:normal;text-align:start;line-height:125%;letter-spacing:0px;word-spacing:0px;writing-mode:lr-tb;text-anchor:start;fill:#2c5aa0;fill-opacity:1;stroke:none;font-family:Liberation Serif;-inkscape-font-specification:Liberation Serif"
         sodipodi:linespacing="125%"><tspan
           x="329.36731"
           y="497.21747"
           id="tspan7047">uelpa</tspan></text>
    </g>
  </g>
</svg>
